# xmcd
#
# Track frame offsets:
#	150
#	18095
#	34096
#	49510
#	67689
#	83918
#	101407
#	119041
#	136440
#	160965
#	178608
#	198576
#	216217
#	232773
#	252192
#	270510
#	289845
#	308874
#
# Disc length: 4378 seconds
#
# Revision: 1
# Processed by: cddbd v1.5.2PL0 Copyright (c) Steve Scherf et al.
# Submitted via: EasyCDDAExtractor 12.0.0.1
#
DISCID=f4111812
DTITLE=Стас Михайлов - Душа
DYEAR=2008
DGENRE=Chanson
TTITLE0=Душа
TTITLE1=Странник
TTITLE2=Мама
TTITLE3=Ночь
TTITLE4=Ты...
TTITLE5=Все для тебя
TTITLE6=Нежданная любовь
TTITLE7=Живу и таю
TTITLE8=Небеса
TTITLE9=Жди
TTITLE10=К тебе иду
TTITLE11=Не вдвоем
TTITLE12=Отпускаю
TTITLE13=Прости
TTITLE14=Ну вот и все
TTITLE15=Без тебя
TTITLE16=Гори звезда моя
TTITLE17=Приди ко мне
EXTD=
EXTT0=
EXTT1=
EXTT2=
EXTT3=
EXTT4=
EXTT5=
EXTT6=
EXTT7=
EXTT8=
EXTT9=
EXTT10=
EXTT11=
EXTT12=
EXTT13=
EXTT14=
EXTT15=
EXTT16=
EXTT17=
PLAYORDER=
